<?xml version="1.0" encoding="UTF-8"?>
<svg width="1200pt" height="1200pt" version="1.1" viewBox="0 0 1200 1200" xmlns="http://www.w3.org/2000/svg">
 <g>
  <path d="m289.8 110.89-32.062-67.836c-24.617 11.691-48.125 25.582-70.238 41.512l43.688 60.863c18.445-13.273 38.062-24.836 58.613-34.539z"/>
  <path d="m179.7 190.01-54.074-51.973c-18.871 19.691-35.949 41.027-51.039 63.75l62.516 41.398c12.582-18.961 26.84-36.758 42.598-53.176z"/>
  <path d="m880.73 320.21c-33.742-111.75-109.55-206.04-211.46-262.98-101.91-56.941-221.95-72.082-334.8-42.234l19.199 72.523h0.003906c57.344-15.176 117.47-16.535 175.45-3.9609 57.977 12.574 112.14 38.727 158.04 76.301l-527.32 527.29c-43.305-52.918-71.305-116.68-80.969-184.37-9.6602-67.695-0.62109-136.74 26.145-199.66l-69.148-29.363c-33.094 77.828-43.586 163.41-30.273 246.92s49.887 161.59 105.54 225.27c55.648 63.684 128.12 110.39 209.09 134.78 30.145 99.574 93.887 185.61 180.37 243.45 86.48 57.832 190.34 83.883 293.88 73.703 103.54-10.176 200.34-55.949 273.91-129.51 73.562-73.566 119.34-170.37 129.51-273.91 10.18-103.54-15.871-207.4-73.703-293.88-57.836-86.48-143.87-150.22-243.45-180.37zm17.023 85.574v0.003906c61.535 26.289 114.88 68.621 154.46 122.57 39.578 53.957 63.941 117.55 70.543 184.14h-307.99c55.387-76.32 85.223-168.2 85.238-262.5 0-15-0.82422-29.664-2.25-44.211zm-684.9 334.39 527.32-527.32c58.574 71.398 88.652 161.95 84.434 254.2-4.2148 92.258-42.426 179.69-107.27 245.45h-4.8359v4.8359c-65.758 64.848-153.19 103.06-245.45 107.27-92.254 4.2188-182.8-25.859-254.2-84.434zm537.15 384.82c-73.34 0.050781-145.07-21.465-206.27-61.871-61.203-40.406-109.17-97.918-137.94-165.38 14.551 1.4258 29.289 2.25 44.211 2.25 109.3-0.027344 214.82-40.039 296.66-112.5h376.42c-9.3984 92.449-52.75 178.13-121.66 240.47-68.914 62.34-158.5 96.91-251.42 97.027z"/>
 </g>
</svg>
