<?xml version="1.0" encoding="UTF-8"?>
<svg width="1200pt" height="1200pt" version="1.1" viewBox="0 0 1200 1200" xmlns="http://www.w3.org/2000/svg">
 <g>
  <path d="m566.5 465.77-53.855-10.238v11.832l53.855 10.25z"/>
  <path d="m380.21 83.496h-11.82l-8.1836 43.078h11.809z"/>
  <path d="m291.9 126.57h11.785l8.1953-43.078h-11.793z"/>
  <path d="m211.93 105.04c0 11.879 9.6484 21.539 21.527 21.539h47.461l8.1953-43.078h-55.645c-11.895 0-21.539 9.6484-21.539 21.539z"/>
  <path d="m337.43 126.57h11.816l8.1875-43.078h-11.809z"/>
  <path d="m566.5 374.69-53.855-10.246v11.82l53.855 10.246z"/>
  <path d="m566.5 283.59-53.855-10.238v11.809l53.855 10.258z"/>
  <path d="m566.5 329.15-53.855-10.25v11.82l53.855 10.238z"/>
  <path d="m566.5 351.91-53.855-10.234v11.809l53.855 10.234z"/>
  <path d="m566.5 306.37-53.855-10.258v11.832l53.855 10.246z"/>
  <path d="m314.66 126.57h11.809l8.1953-43.078h-11.82z"/>
  <path d="m790.61 83.496h-11.785l-8.1953 43.078h11.797z"/>
  <path d="m745.08 83.496h-11.816l-8.1875 43.078h11.809z"/>
  <path d="m402.97 83.496h-11.797l-8.1836 43.078h11.785z"/>
  <path d="m867.2 105.04c0-11.891-9.6484-21.539-21.527-21.539h-44.074l-8.1953 43.078h52.273c11.875 0 21.523-9.6602 21.523-21.539z"/>
  <path d="m767.84 83.496h-11.809l-8.1953 43.078h11.82z"/>
  <path d="m512.64 148.56v113.82l53.844 10.246v-124.07c0-11.902 9.4805-21.984 21.383-21.984h80.688l8.1953-43.078h-262.8l-8.1953 43.078h85.766c11.918 0 21.121 10.082 21.121 21.984z"/>
  <path d="m722.3 83.496h-11.809l-8.1953 43.078h11.82z"/>
  <path d="m699.52 83.496h-11.785l-8.1953 43.078h11.797z"/>
  <path d="m566.5 420.24-53.855-10.246v11.809l53.855 10.246z"/>
  <path d="m566.5 602.43-53.855-10.238v11.809l53.855 10.246z"/>
  <path d="m566.5 625.2-53.855-10.246v11.809l53.855 10.258z"/>
  <path d="m566.5 579.66-53.855-10.25v11.82l53.855 10.238z"/>
  <path d="m566.5 511.33-53.855-10.234v11.805l53.855 10.238z"/>
  <path d="m566.5 534.1-53.855-10.238v11.82l53.855 10.25z"/>
  <path d="m566.5 556.86-53.855-10.223v11.82l53.855 10.246z"/>
  <path d="m512.64 740.65 53.855 10.234v-11.809l-53.855-10.258z"/>
  <path d="m566.5 647.99-53.855-10.262v11.832l53.855 10.227z"/>
  <path d="m566.5 716.28-53.855-10.227v11.82l53.855 10.25z"/>
  <path d="m566.5 670.75-53.855-10.238v11.809l53.855 10.234z"/>
  <path d="m566.5 693.52-53.855-10.234v11.82l53.855 10.223z"/>
  <path d="m566.5 397.46-53.855-10.25v11.82l53.855 10.238z"/>
  <path d="m566.5 443-53.855-10.246v11.816l53.855 10.262z"/>
  <path d="m566.5 488.57-53.855-10.246v11.82l53.855 10.223z"/>
  <path d="m983.18 733.96c-99.984-19.008-185.89 26.438-238.31 122.68-0.046875-1.6094 0-3.1328-0.070312-4.7539-6.1914-134.86 56.305-228.57 167.16-250.7 3.2539-0.64844 5.3633-3.8047 4.7148-7.0547-0.64844-3.2539-3.8164-5.3867-7.0547-4.7148-117.19 23.375-183.29 121.71-176.81 263 0.44531 9.5273 0.50391 18.77 0.32422 27.828-4.5 9.9492-8.7734 20.195-12.613 31.043-45.59 129.19-131.84 189.66-243.21 171.14-20.316-15.961-34.199-38.34-39.312-63.961-0.035156-0.17969-0.070312-0.34766-0.13281-0.51562-11.375-58.512 26.797-115.5 85.32-127.19 0.99609-0.20312 1.8125-0.68359 2.543-1.2734 4.0547 2.4492 8.7461 3.9375 13.824 3.9375 14.867 0 26.93-12.059 26.93-26.914v-104.68l-53.844-10.246v104.5c-31.164-5.5312-62.676 1.1289-88.883 18.949-26.629 18.121-44.594 45.516-50.605 77.148-12.359 64.922 30.086 127.8 94.738 140.76 0.37109 0.15625 0.76953 0.26563 1.1875 0.34766 1.1758 0.22656 2.3047 0.28906 3.4688 0.50391 1.668 1.2461 3.2656 2.543 5.0039 3.707 20.039 13.379 43.094 20.305 66.66 20.305 7.5234 0 15.109-0.70703 22.656-2.1367 0.40625 0.011719 0.85156-0.023437 1.2734-0.12109 111.74-22.309 173.7-104.41 176.9-232.43 48.504-105.54 134.64-156.67 235.91-137.4 3.2383 0.58984 6.3945-1.5234 7.0078-4.7656 0.62891-3.2344-1.5078-6.3789-4.7734-7zm-598.27 220.49c11.184-58.801 68.102-97.586 126.95-86.352 0.32422 0.058594 0.625-0.023438 0.94922-0.011719 0.25391 4.3789 1.5469 8.4609 3.6602 12.047-62.652 14.953-102.96 77.016-90.254 140.71 0.035156 0.19141 0.085937 0.35938 0.13281 0.55078 4.2227 20.699 13.668 39.422 27.203 54.926-48.574-18.18-78.637-69.227-68.641-121.87zm182.04 149.13c-0.38281-0.058594-0.82812 0.035156-1.2344 0.12109-21.648 4.332-43.57 1.9922-63.457-6.457 4.7031 0.27734 9.4453 0.70703 14.051 0.70703 96.672 0 171.5-61.945 213.9-178.36-13.078 100.35-69.453 164.82-163.26 183.98z"/>
 </g>
</svg>
