<?xml version="1.0" encoding="UTF-8"?>
<svg width="1200pt" height="1200pt" version="1.1" viewBox="0 0 1200 1200" xmlns="http://www.w3.org/2000/svg">
 <g>
  <path d="m1089.6 207.6h-979.2c-57.602 0-104.4 46.801-104.4 104.4v574.8c0 57.602 46.801 104.4 104.4 104.4h979.2c57.602 0 104.4-46.801 104.4-104.4l0.003906-573.6c0-58.801-46.801-105.6-104.4-105.6zm-867.6 691.2c-25.199 0-45.602-20.398-45.602-45.602 0-25.199 20.398-45.602 45.602-45.602 25.199 0 45.602 20.398 45.602 45.602 0 25.199-20.402 45.602-45.602 45.602zm138 0c-25.199 0-45.602-20.398-45.602-45.602 0-25.199 20.398-45.602 45.602-45.602 25.199 0 45.602 20.398 45.602 45.602 0 25.199-20.402 45.602-45.602 45.602zm138 0c-25.199 0-45.602-20.398-45.602-45.602 0-25.199 20.398-45.602 45.602-45.602 25.199 0 45.602 20.398 45.602 45.602 0 25.199-20.402 45.602-45.602 45.602zm138 0c-25.199 0-45.602-20.398-45.602-45.602 0-25.199 20.398-45.602 45.602-45.602 25.199 0 45.602 20.398 45.602 45.602 0 25.199-20.402 45.602-45.602 45.602zm138 0c-25.199 0-45.602-20.398-45.602-45.602 0-25.199 20.398-45.602 45.602-45.602 25.199 0 45.602 20.398 45.602 45.602 0 25.199-20.402 45.602-45.602 45.602zm138 0c-25.199 0-45.602-20.398-45.602-45.602 0-25.199 20.398-45.602 45.602-45.602 25.199 0 45.602 20.398 45.602 45.602 0 25.199-20.402 45.602-45.602 45.602zm138 0c-25.199 0-45.602-20.398-45.602-45.602 0-25.199 20.398-45.602 45.602-45.602 25.199 0 45.602 20.398 45.602 45.602 0 25.199-20.402 45.602-45.602 45.602zm106.8-115.2h-1114.8v-289.2l78-55.199-78-55.199v-73.199c0-37.199 30-67.199 67.199-67.199h979.2c37.199 0 67.199 30 67.199 67.199l0.003906 472.8z"/>
  <path d="m1095.6 716.4c0 25.188-20.418 45.602-45.602 45.602s-45.602-20.414-45.602-45.602c0-25.184 20.418-45.598 45.602-45.598s45.602 20.414 45.602 45.598"/>
  <path d="m957.6 716.4c0 25.188-20.418 45.602-45.602 45.602s-45.602-20.414-45.602-45.602c0-25.184 20.418-45.598 45.602-45.598s45.602 20.414 45.602 45.598"/>
  <path d="m819.6 716.4c0 25.188-20.418 45.602-45.602 45.602s-45.602-20.414-45.602-45.602c0-25.184 20.418-45.598 45.602-45.598s45.602 20.414 45.602 45.598"/>
  <path d="m681.6 716.4c0 25.188-20.418 45.602-45.602 45.602s-45.602-20.414-45.602-45.602c0-25.184 20.418-45.598 45.602-45.598s45.602 20.414 45.602 45.598"/>
  <path d="m543.6 716.4c0 25.188-20.418 45.602-45.602 45.602s-45.602-20.414-45.602-45.602c0-25.184 20.418-45.598 45.602-45.598s45.602 20.414 45.602 45.598"/>
  <path d="m405.6 716.4c0 25.188-20.418 45.602-45.602 45.602s-45.602-20.414-45.602-45.602c0-25.184 20.418-45.598 45.602-45.598s45.602 20.414 45.602 45.598"/>
  <path d="m267.6 716.4c0 25.188-20.418 45.602-45.602 45.602s-45.602-20.414-45.602-45.602c0-25.184 20.418-45.598 45.602-45.598s45.602 20.414 45.602 45.598"/>
  <path d="m1095.6 578.4c0 25.188-20.418 45.602-45.602 45.602s-45.602-20.414-45.602-45.602c0-25.184 20.418-45.598 45.602-45.598s45.602 20.414 45.602 45.598"/>
  <path d="m957.6 578.4c0 25.188-20.418 45.602-45.602 45.602s-45.602-20.414-45.602-45.602c0-25.184 20.418-45.598 45.602-45.598s45.602 20.414 45.602 45.598"/>
  <path d="m819.6 578.4c0 25.188-20.418 45.602-45.602 45.602s-45.602-20.414-45.602-45.602c0-25.184 20.418-45.598 45.602-45.598s45.602 20.414 45.602 45.598"/>
  <path d="m681.6 578.4c0 25.188-20.418 45.602-45.602 45.602s-45.602-20.414-45.602-45.602c0-25.184 20.418-45.598 45.602-45.598s45.602 20.414 45.602 45.598"/>
  <path d="m543.6 578.4c0 25.188-20.418 45.602-45.602 45.602s-45.602-20.414-45.602-45.602c0-25.184 20.418-45.598 45.602-45.598s45.602 20.414 45.602 45.598"/>
  <path d="m405.6 578.4c0 25.188-20.418 45.602-45.602 45.602s-45.602-20.414-45.602-45.602c0-25.184 20.418-45.598 45.602-45.598s45.602 20.414 45.602 45.598"/>
  <path d="m267.6 578.4c0 25.188-20.418 45.602-45.602 45.602s-45.602-20.414-45.602-45.602c0-25.184 20.418-45.598 45.602-45.598s45.602 20.414 45.602 45.598"/>
  <path d="m1095.6 440.4c0 25.188-20.418 45.602-45.602 45.602s-45.602-20.414-45.602-45.602c0-25.184 20.418-45.598 45.602-45.598s45.602 20.414 45.602 45.598"/>
  <path d="m957.6 440.4c0 25.188-20.418 45.602-45.602 45.602s-45.602-20.414-45.602-45.602c0-25.184 20.418-45.598 45.602-45.598s45.602 20.414 45.602 45.598"/>
  <path d="m819.6 440.4c0 25.188-20.418 45.602-45.602 45.602s-45.602-20.414-45.602-45.602c0-25.184 20.418-45.598 45.602-45.598s45.602 20.414 45.602 45.598"/>
  <path d="m681.6 440.4c0 25.188-20.418 45.602-45.602 45.602s-45.602-20.414-45.602-45.602c0-25.184 20.418-45.598 45.602-45.598s45.602 20.414 45.602 45.598"/>
  <path d="m543.6 440.4c0 25.188-20.418 45.602-45.602 45.602s-45.602-20.414-45.602-45.602c0-25.184 20.418-45.598 45.602-45.598s45.602 20.414 45.602 45.598"/>
  <path d="m405.6 440.4c0 25.188-20.418 45.602-45.602 45.602s-45.602-20.414-45.602-45.602c0-25.184 20.418-45.598 45.602-45.598s45.602 20.414 45.602 45.598"/>
  <path d="m267.6 440.4c0 25.188-20.418 45.602-45.602 45.602s-45.602-20.414-45.602-45.602c0-25.184 20.418-45.598 45.602-45.598s45.602 20.414 45.602 45.598"/>
  <path d="m181.2 302.4h80.398v37.199h-80.398z"/>
  <path d="m319.2 302.4h80.398v37.199h-80.398z"/>
  <path d="m457.2 302.4h80.398v37.199h-80.398z"/>
  <path d="m595.2 302.4h80.398v37.199h-80.398z"/>
  <path d="m728.4 302.4h80.398v37.199h-80.398z"/>
  <path d="m871.2 302.4h80.398v37.199h-80.398z"/>
  <path d="m1010.4 302.4h80.398v37.199h-80.398z"/>
 </g>
</svg>
