<?xml version="1.0" encoding="UTF-8"?>
<svg width="1200pt" height="1200pt" version="1.1" viewBox="0 0 1200 1200" xmlns="http://www.w3.org/2000/svg">
 <g>
  <path d="m338.38 218.93c2.8906-1.6445 6.0234-3 9.3359-4.0195l1.4297-0.44531-2.5664-8.3164-1.4414 0.44531c-3.8984 1.2109-7.6328 2.8203-11.09 4.7891l-1.2969 0.74219 4.3203 7.5469z"/>
  <path d="m357.74 212.89c3.457-0.32422 6.8633-0.28906 10.176 0.13281l1.4883 0.19141 1.0781-8.6289-1.4883-0.19141c-3.9102-0.50391-7.9805-0.55078-12.07-0.16797l-1.5 0.14453 0.81641 8.6641z"/>
  <path d="m486.25 962.39c2.9023-1.6562 6.0469-3.0117 9.3359-4.0312l1.4297-0.44531-2.5664-8.3047-1.4414 0.44531c-3.9102 1.2109-7.6445 2.8203-11.09 4.7891l-1.2969 0.74219 4.3203 7.5469z"/>
  <path d="m505.63 956.35c3.4453-0.30078 6.875-0.26562 10.188 0.14453l1.4883 0.19141 1.0781-8.6289-1.4883-0.19141c-3.9492-0.50391-8.0039-0.5625-12.07-0.16797l-1.5 0.14453 0.81641 8.6523z"/>
  <path d="m847.11 206.58-1.4297-0.44531-2.5781 8.3164 1.4297 0.44531c3.2891 1.0078 6.4336 2.3633 9.3477 4.0195l1.2969 0.74219 4.3086-7.5469-1.2969-0.74219c-3.4375-1.9688-7.168-3.5742-11.078-4.7891z"/>
  <path d="m675.35 947.87-1.4883 0.19141 1.0938 8.6289 1.4883-0.19141c3.2656-0.40625 6.6953-0.44531 10.176-0.14453l1.5 0.14453 0.79297-8.6523-1.4883-0.14453c-4.0469-0.39453-8.1016-0.33594-12.074 0.16797z"/>
  <path d="m823.25 204.39-1.4883 0.19141 1.0781 8.6289 1.4883-0.19141c3.3242-0.43359 6.7305-0.45703 10.176-0.13281l1.4883 0.14453 0.82812-8.6641-1.5-0.14453c-4.1016-0.37109-8.1445-0.32422-12.07 0.16797z"/>
  <path d="m869.75 61.754c-12.035-2.3984-24.07-0.99609-33.938 3.9102-9.9961 4.9805-16.535 12.973-18.434 22.488l1.4766 0.30078-1.4766-0.28906-200.19 1006.4c-1.8828 9.5156 1.1055 19.391 8.4375 27.828 7.2344 8.3164 17.832 14.219 29.855 16.609 3.8398 0.75781 7.6914 1.1406 11.461 1.1406 8.0391 0 15.758-1.7148 22.477-5.0508 9.9961-4.9922 16.547-12.973 18.445-22.488l200.18-1006.4c3.875-19.523-13.297-39.445-38.293-44.434zm-11.832 59.508c-18.742-3.7305-31.859-17.566-29.219-30.852 1.2461-6.3242 5.9141-11.629 13.141-14.914 4.8477-2.207 10.43-3.3359 16.285-3.3359 3.0703 0 6.2148 0.3125 9.3594 0.9375 18.742 3.7305 31.859 17.566 29.219 30.852-2.6289 13.266-20.039 21.055-38.785 17.312zm2.8945 102.61 1.0781 1.043c2.4375 2.375 4.4023 4.9805 5.8203 7.7539l0.69531 1.332 2.7109-1.3906-3 15.109c-3.8398 12.289-20.746 19.129-38.461 15.625-17.734-3.5273-30.719-16.344-29.578-29.004l3.0469-15.312 1.9688 2.3516 1.1523-0.97266c2.375-2.0039 5.207-3.6602 8.375-4.9219l1.3906-0.55078-3.2148-8.0898-1.3906 0.55078c-2.3516 0.9375-4.5703 2.0625-6.6484 3.3711l19.285-97.008c7.0664 9.3008 18.613 16.234 31.609 18.816 13.02 2.5938 26.328 0.60156 36.395-5.293l-19.285 97.02c-1.4023-1.9922-3.0117-3.875-4.8008-5.6172l-1.0664-1.043zm-147.88 743.46 1.0781 1.0547c2.4492 2.3867 4.4141 5.0039 5.8203 7.7539l0.69531 1.3203 2.7109-1.3906-3.5625 17.891c-3.9102 12.203-20.844 19.043-38.426 15.492-17.746-3.5273-30.73-16.344-29.578-29.016l3.5742-17.953 1.9805 2.3398 1.1523-0.96094c2.3398-1.9922 5.1602-3.6484 8.3633-4.9219l1.3789-0.5625-3.2266-8.0898-1.3906 0.5625c-2.3398 0.94922-4.5586 2.0742-6.6367 3.3828l138.98-698.73c7.0312 9.3242 18.574 16.273 31.598 18.863 12.996 2.5664 26.34 0.58984 36.406-5.3398l-138.98 698.75c-1.3906-1.9922-3-3.8633-4.7773-5.6289l-1.0781-1.043zm2.5078 47.855-18.926 95.172c-1.2461 6.3242-5.9141 11.629-13.141 14.914-7.3789 3.3594-16.488 4.2461-25.656 2.3984-9.1562-1.8125-17.242-6.0977-22.777-12.035-5.3984-5.7969-7.6914-12.48-6.4219-18.805l18.91-95.184c7.0312 9.3242 18.59 16.273 31.609 18.875 13 2.5625 26.332 0.59375 36.402-5.3359z"/>
  <path d="m374.87 88.152c-1.8945-9.5156-8.4375-17.496-18.434-22.488-9.875-4.9219-21.926-6.2891-33.949-3.9102-24.996 4.9805-42.168 24.91-38.281 44.438l200.18 1006.4c1.8945 9.5156 8.4492 17.508 18.445 22.488 6.707 3.3359 14.438 5.0508 22.477 5.0508 3.7695 0 7.6211-0.37109 11.473-1.1406 12.023-2.3867 22.621-8.2812 29.855-16.609 7.332-8.4375 10.32-18.312 8.4258-27.828zm96.852 889.33 0.69531-1.332c1.4141-2.7461 3.3711-5.3633 5.832-7.7539l1.0664-1.0547-6.0859-6.2266-1.0664 1.043c-1.7891 1.7539-3.3945 3.6367-4.7891 5.6289l-138.99-698.74c10.055 5.9297 23.363 7.9219 36.406 5.3281 13.02-2.5938 24.562-9.5273 31.598-18.863l138.98 698.73c-2.0625-1.3086-4.2852-2.4492-6.6367-3.3828l-1.3906-0.5625-3.2148 8.0898 1.3906 0.5625c3.2031 1.2734 6.0117 2.9297 8.3633 4.9219l1.1406 0.96094 1.9922-2.3398 3.5391 17.797c1.1641 12.816-11.82 25.645-29.555 29.172-17.629 3.5742-34.512-3.3008-38.387-15.324l-3.5898-18.047zm-147.89-743.48 0.69531-1.332c1.4141-2.7461 3.3711-5.3516 5.832-7.7539l1.0664-1.043-6.0859-6.2266-1.0664 1.043c-1.7891 1.7383-3.3945 3.625-4.7891 5.6172l-19.297-97.008c10.094 5.8906 23.438 7.8711 36.406 5.293 12.996-2.5781 24.539-9.5156 31.609-18.828l19.297 97.02c-2.0625-1.3086-4.2969-2.4492-6.6367-3.3828l-1.3906-0.55078-3.2266 8.0898 1.3906 0.55078c3.1914 1.2617 6 2.9297 8.3633 4.9219l1.1523 0.97266 1.9922-2.3633 3.0234 15.156c1.1523 12.828-11.832 25.633-29.555 29.172-17.711 3.4805-34.621-3.3477-38.426-15.469l-3.0352-15.266zm189.37 786.53c13.02-2.6055 24.562-9.5391 31.598-18.875l18.938 95.184c2.6406 13.273-10.465 27.121-29.219 30.84-18.742 3.707-36.156-4.0312-38.797-17.316l-18.926-95.172c10.066 5.9297 23.387 7.8984 36.406 5.3398zm-178.87-899.27c-18.793 3.7422-36.145-4.043-38.797-17.316-2.6406-13.285 10.465-27.121 29.219-30.852 3.1797-0.63672 6.3242-0.9375 9.3594-0.9375 14.867 0 27.238 7.2227 29.438 18.254 2.6289 13.281-10.477 27.117-29.219 30.852z"/>
  <path d="m699.23 950.05-1.4297-0.44531-2.5781 8.3047 1.4297 0.44531c3.2891 1.0195 6.4336 2.375 9.3359 4.0312l1.2852 0.74219 4.332-7.5586-1.3086-0.74219c-3.457-1.957-7.1758-3.5742-11.066-4.7773z"/>
 </g>
</svg>
