<?xml version="1.0" encoding="UTF-8"?>
<svg width="1200pt" height="1200pt" version="1.1" viewBox="0 0 1200 1200" xmlns="http://www.w3.org/2000/svg">
 <path d="m141.56 1031.9c-6.5625-11.156-10.312-24.172-10.312-38.062 0 0 56.25-56.289 56.25-56.289v-112.5l42.938-42.992 56.25 56.25c7.3125 7.3125 19.312 7.3125 26.625 0s7.3125-19.199 0-26.512l-56.25-56.25 48.375-48.488 56.25 56.25c7.3125 7.3125 19.312 7.3125 26.625 0s7.3125-19.199 0-26.512l-56.25-56.25 48.375-48.488 56.25 56.25c7.3125 7.3125 19.312 7.3125 26.625 0s7.3125-19.199 0-26.512l-56.25-56.25 48.375-48.488 56.25 56.25c7.3125 7.3125 19.312 7.3125 26.625 0s7.3125-19.199 0-26.512l-56.25-56.25 48.375-48.488 56.25 56.25c7.3125 7.3125 19.312 7.3125 26.625 0s7.3125-19.199 0-26.512l-56.25-56.25 174.19-174.25 187.5 187.5-543.75 543.75h-112.5l-56.25 56.25c-13.875 0-27-3.7891-38.062-10.387l-117.56 117.47c-7.3125 7.332-19.125 7.332-26.438 0-7.3125-7.3125-7.3125-19.199 0-26.512zm896.81-537.25c-15.562 15.523-40.688 15.523-56.25 0-57.188-57.207-219.56-219.51-276.75-276.71-15.562-15.523-15.375-40.727 0-56.25 7.875-7.7617 18-11.645 28.125-11.645s20.438 3.8828 28.125 11.645c57.188 57.207 219.56 219.51 276.75 276.71 7.6875 7.7617 11.625 17.945 11.625 28.105 0 10.18-3.9375 20.383-11.625 28.145zm-44.625-363.36-44.625-44.605c-15.562-15.527-15.562-40.688 0-56.215 7.875-7.7617 18-11.68 28.125-11.68s20.438 3.8828 28.125 11.645c35.438 35.398 128.81 128.81 164.25 164.21 7.6875 7.7617 11.625 17.945 11.625 28.105 0 10.18-3.9375 20.383-11.625 28.145-15.562 15.523-40.688 15.523-56.25 0l-44.625-44.605-112.5 112.5-75-75z" fill-rule="evenodd"/>
</svg>
