<?xml version="1.0" encoding="UTF-8"?>
<svg width="1200pt" height="1200pt" version="1.1" viewBox="0 0 1200 1200" xmlns="http://www.w3.org/2000/svg">
 <g>
  <path d="m594 282c-85.93 0-168.34 34.137-229.1 94.898-60.762 60.762-94.898 143.17-94.898 229.1s34.137 168.34 94.898 229.1c60.762 60.762 143.17 94.898 229.1 94.898s168.34-34.137 229.1-94.898c60.762-60.762 94.898-143.17 94.898-229.1 0-56.875-14.973-112.75-43.406-162-28.438-49.254-69.34-90.156-118.59-118.59-49.254-28.434-105.12-43.406-162-43.406zm0 612c-76.383 0-149.64-30.344-203.65-84.352-54.008-54.012-84.352-127.27-84.352-203.65s30.344-149.64 84.352-203.65c54.012-54.008 127.27-84.352 203.65-84.352s149.64 30.344 203.65 84.352c54.008 54.012 84.352 127.27 84.352 203.65s-30.344 149.64-84.352 203.65c-54.012 54.008-127.27 84.352-203.65 84.352z"/>
  <path d="m594 370.8c-62.379 0-122.2 24.777-166.31 68.887s-68.887 103.93-68.887 166.31 24.777 122.2 68.887 166.31 103.93 68.887 166.31 68.887 122.2-24.777 166.31-68.887 68.887-103.93 68.887-166.31c-0.0625-62.359-24.863-122.15-68.957-166.24s-103.88-68.895-166.24-68.957zm0 434.28v-0.003906c-39.402 0-77.922-11.684-110.68-33.578-32.758-21.895-58.293-53.012-73.363-89.418-15.074-36.406-19.012-76.465-11.316-115.11 7.6953-38.645 26.68-74.137 54.551-101.99 27.871-27.852 63.375-46.816 102.02-54.488 38.648-7.6719 78.707-3.7109 115.1 11.387 36.398 15.094 67.5 40.645 89.375 73.418s33.535 71.301 33.512 110.7c-0.0625 52.812-21.07 103.44-58.414 140.79s-87.973 58.352-140.79 58.414z"/>
  <path d="m481.8 661.44c-8.5664-17.223-13.004-36.207-12.961-55.441 0-6.4297-3.4297-12.375-9-15.59-5.5703-3.2148-12.43-3.2148-18 0-5.5703 3.2148-9 9.1602-9 15.59-0.054688 24.773 5.6562 49.219 16.68 71.398 2.1172 4.2812 5.8477 7.5469 10.371 9.0781 4.5234 1.5273 9.4688 1.1992 13.75-0.91797 4.2812-2.1133 7.543-5.8438 9.0742-10.367 1.5312-4.5234 1.2031-9.4727-0.91406-13.75z"/>
  <path d="m521.04 708c-6.3867-4.5977-12.332-9.7812-17.758-15.48-3.2578-3.6016-7.8359-5.7305-12.688-5.9102-4.8516-0.17578-9.5703 1.6133-13.086 4.9648-3.5117 3.3516-5.5234 7.9805-5.5742 12.836-0.050782 4.8555 1.8633 9.5273 5.3047 12.949 6.9648 7.2969 14.602 13.926 22.801 19.801 5.2188 3.3008 11.762 3.6953 17.34 1.0469 5.5781-2.6445 9.4102-7.9648 10.152-14.094 0.74219-6.1289-1.707-12.211-6.4922-16.113z"/>
  <path d="m594 731.16c-13.203 0.023438-26.324-2.043-38.879-6.1211-6.0312-1.7188-12.523-0.17969-17.133 4.0703-4.6133 4.2461-6.6836 10.59-5.4648 16.738 1.2188 6.1523 5.5508 11.227 11.438 13.391 16.156 5.2617 33.047 7.9375 50.039 7.9219 6.4297 0 12.375-3.4297 15.59-9 3.2148-5.5703 3.2148-12.43 0-18-3.2148-5.5703-9.1602-9-15.59-9z"/>
  <path d="m1016.8 157.8-24 24-36-36c-5.6289-5.6445-13.273-8.8125-21.242-8.8125s-15.609 3.168-21.238 8.8125l-36 36-36-36c-5.6289-5.6445-13.273-8.8125-21.242-8.8125s-15.609 3.168-21.238 8.8125l-36 36-36-36c-5.6289-5.6445-13.27-8.8125-21.242-8.8125-7.9688 0-15.609 3.168-21.238 8.8125l-36 36-36-36c-5.6289-5.6445-13.27-8.8125-21.242-8.8125-7.9688 0-15.609 3.168-21.238 8.8125l-36 36-36-36c-5.6289-5.6445-13.27-8.8125-21.238-8.8125-7.9727 0-15.613 3.168-21.242 8.8125l-36 36-36-36c-5.6289-5.6445-13.27-8.8125-21.238-8.8125-7.9727 0-15.613 3.168-21.242 8.8125l-36 36-36-36c-5.6289-5.6445-13.27-8.8125-21.238-8.8125s-15.613 3.168-21.242 8.8125l-36 36-24-24c-8.6641-6.2656-20.012-7.4414-29.777-3.0859-9.7695 4.3516-16.48 13.574-17.621 24.207v854.16c-0.015625 7.9688 3.1406 15.613 8.7695 21.254 5.6289 5.6367 13.27 8.8047 21.238 8.8008 7.9648 0 15.605-3.1719 21.23-8.8125l24-24 36 36c5.6289 5.6406 13.273 8.8125 21.242 8.8125s15.609-3.1719 21.238-8.8125l36-36 36 36c5.6289 5.6406 13.273 8.8125 21.242 8.8125s15.609-3.1719 21.238-8.8125l36-36 36 36c5.6289 5.6406 13.27 8.8125 21.242 8.8125 7.9688 0 15.609-3.1719 21.238-8.8125l36-36 36 36c5.6289 5.6406 13.27 8.8125 21.242 8.8125 7.9688 0 15.609-3.1719 21.238-8.8125l36-36 36 36c5.6289 5.6406 13.27 8.8125 21.238 8.8125 7.9727 0 15.613-3.1719 21.242-8.8125l36-36 36 36c5.6289 5.6406 13.27 8.8125 21.238 8.8125 7.9727 0 15.613-3.1719 21.242-8.8125l36-36 36 36c5.6289 5.6406 13.27 8.8125 21.238 8.8125s15.613-3.1719 21.242-8.8125l36-36 24 24c8.6836 6.2695 20.051 7.4336 29.824 3.0508 9.7734-4.3789 16.473-13.637 17.574-24.293v-854.16c0.015625-7.9688-3.1406-15.613-8.7695-21.254-5.6289-5.6367-13.27-8.8047-21.238-8.8008-7.9648 0-15.605 3.1719-21.23 8.8125zm15.238 860.76-17.762-17.758c-5.625-5.6445-13.27-8.8125-21.238-8.8125s-15.613 3.168-21.238 8.8125l-36 36-36-36c-5.6289-5.6445-13.273-8.8125-21.242-8.8125s-15.609 3.168-21.238 8.8125l-36 36-36-36c-5.7188-5.4727-13.328-8.5273-21.242-8.5273-7.9141 0-15.523 3.0547-21.238 8.5273l-36 36-36-36c-5.6289-5.6445-13.27-8.8125-21.242-8.8125-7.9688 0-15.609 3.168-21.238 8.8125l-36 36-36-36c-5.6289-5.6445-13.27-8.8125-21.242-8.8125-7.9688 0-15.609 3.168-21.238 8.8125l-36 36-36-36c-5.7188-5.4727-13.324-8.5273-21.238-8.5273-7.9141 0-15.523 3.0547-21.242 8.5273l-36 36-36-36c-5.6289-5.6445-13.27-8.8125-21.238-8.8125-7.9727 0-15.613 3.168-21.242 8.8125l-36 36-36-36c-5.6289-5.6445-13.27-8.8125-21.238-8.8125s-15.613 3.168-21.242 8.8125l-14.398 17.758v-825.12l17.762 17.762v-0.003906c5.625 5.6445 13.27 8.8125 21.238 8.8125s15.613-3.168 21.238-8.8125l36-36 36 36c5.6289 5.6445 13.273 8.8125 21.242 8.8125s15.609-3.168 21.238-8.8125l36-36 36 36c5.7188 5.4727 13.328 8.5273 21.242 8.5273 7.9141 0 15.523-3.0547 21.238-8.5273l36-36 36 36c5.6289 5.6445 13.27 8.8125 21.242 8.8125 7.9688 0 15.609-3.168 21.238-8.8125l36-36 36 36c5.6289 5.6445 13.27 8.8125 21.242 8.8125 7.9688 0 15.609-3.168 21.238-8.8125l36-36 36 36c5.7188 5.4727 13.324 8.5273 21.238 8.5273 7.9141 0 15.523-3.0547 21.242-8.5273l36-36 36 36c5.6289 5.6445 13.27 8.8125 21.238 8.8125 7.9727 0 15.613-3.168 21.242-8.8125l36-36 36 36c5.6289 5.6445 13.27 8.8125 21.238 8.8125s15.613-3.168 21.242-8.8125l14.398-17.758z"/>
 </g>
</svg>
